<?xml version="1.0" encoding="utf-8"?>
<!-- Generator: Adobe Illustrator 16.0.0, SVG Export Plug-In . SVG Version: 6.00 Build 0)  -->
<!DOCTYPE svg PUBLIC "-//W3C//DTD SVG 1.1//EN" "http://www.w3.org/Graphics/SVG/1.1/DTD/svg11.dtd">
<svg version="1.1" id="Layer_1" xmlns="http://www.w3.org/2000/svg" xmlns:xlink="http://www.w3.org/1999/xlink" x="0px" y="0px"
	 width="139.126px" height="28.35px" viewBox="0 0 139.126 28.35" enable-background="new 0 0 139.126 28.35" xml:space="preserve">
<g id="XMLID_1_">
	<g>
		<polygon fill="#F5A622" points="136.151,10.91 128.582,16.38 131.441,25.27 123.901,19.76 116.332,25.229 119.242,16.35 
			111.702,10.84 121.042,10.87 123.952,2 126.812,10.89 		"/>
	</g>
	<g>
		<polygon fill="none" stroke="#F5A622" stroke-miterlimit="10" points="131.441,25.27 123.901,19.76 116.332,25.229 119.242,16.35 
			111.702,10.84 121.042,10.87 123.952,2 126.812,10.89 136.151,10.91 128.582,16.38 		"/>
	</g>
</g>
<g id="XMLID_2_">
	<g>
		<polygon fill="#F5A622" points="108.702,10.91 101.132,16.38 103.992,25.27 96.452,19.76 88.882,25.229 91.792,16.35 
			84.252,10.84 93.592,10.87 96.502,2 99.362,10.89 		"/>
	</g>
	<g>
		<polygon fill="none" stroke="#F5A622" stroke-miterlimit="10" points="103.992,25.27 96.452,19.76 88.882,25.229 91.792,16.35 
			84.252,10.84 93.592,10.87 96.502,2 99.362,10.89 108.702,10.91 101.132,16.38 		"/>
	</g>
</g>
<g id="XMLID_3_">
	<g>
		<polygon fill="#F5A622" points="81.252,10.91 73.682,16.38 76.542,25.27 69.002,19.76 61.432,25.229 64.342,16.35 56.802,10.84 
			66.142,10.87 69.052,2 71.912,10.89 		"/>
	</g>
	<g>
		<polygon fill="none" stroke="#F5A622" stroke-miterlimit="10" points="76.542,25.27 69.002,19.76 61.432,25.229 64.342,16.35 
			56.802,10.84 66.142,10.87 69.052,2 71.912,10.89 81.252,10.91 73.682,16.38 		"/>
	</g>
</g>
<g id="XMLID_4_">
	<g>
		<polygon fill="#F5A622" points="53.802,10.91 46.232,16.38 49.092,25.27 41.552,19.76 33.982,25.229 36.893,16.35 29.353,10.84 
			38.692,10.87 41.603,2 44.462,10.89 		"/>
	</g>
	<g>
		<polygon fill="none" stroke="#F5A622" stroke-miterlimit="10" points="49.092,25.27 41.552,19.76 33.982,25.229 36.893,16.35 
			29.353,10.84 38.692,10.87 41.603,2 44.462,10.89 53.802,10.91 46.232,16.38 		"/>
	</g>
</g>
<g id="XMLID_5_">
	<g>
		<polygon fill="#F5A622" points="26.45,10.91 18.88,16.38 21.74,25.27 14.2,19.76 6.63,25.229 9.54,16.35 2,10.84 11.34,10.87 
			14.25,2 17.11,10.89 		"/>
	</g>
	<g>
		<polygon fill="none" stroke="#F5A622" stroke-miterlimit="10" points="21.74,25.27 14.2,19.76 6.63,25.229 9.54,16.35 2,10.84 
			11.34,10.87 14.25,2 17.11,10.89 26.45,10.91 18.88,16.38 		"/>
	</g>
</g>
</svg>
